<?xml version="1.0" encoding="UTF-8"?>
<svg id="Layer_2" data-name="Layer 2" xmlns="http://www.w3.org/2000/svg" viewBox="0 0 292.85 26.93">
  <defs>
    <style>
      .cls-1, .cls-2 {
        fill: #fff;
      }

      .cls-2 {
        fill-rule: evenodd;
      }
    </style>
  </defs>
  <g id="white">
    <polygon class="cls-1" points="34.24 19.56 34.24 26.08 14.68 26.08 14.68 26.08 14.68 19.56 14.68 10.03 0 .86 14.68 .86 14.68 .86 17.29 .86 17.29 19.56 34.24 19.56"/>
    <polygon class="cls-2" points="34.24 10.03 48.92 .86 34.24 .86 34.24 10.03"/>
    <g>
      <path class="cls-1" d="M57.87,26.47V.45h5.6V21.56h11.98v4.91h-17.58Z"/>
      <path class="cls-1" d="M79.7,26.47V.45h5.6V26.47h-5.6Z"/>
      <path class="cls-1" d="M92.06,26.47V.45h5.53V26.47h-5.53Zm4.94-5.95l-.27-6.95L108.23,.45h6.18l-10.33,12.08-3.16,3.57-3.91,4.42h0Zm11.5,5.95l-8.55-11.3,3.64-4.31,11.43,15.61h-6.52Z"/>
      <path class="cls-1" d="M124.09,21.64h13.08v4.83h-18.61V.45h18.16V5.28h-12.63V21.64Zm-.41-10.74h11.57v4.72h-11.57v-4.72Z"/>
      <path class="cls-1" d="M142.69,26.47V.45h5.6V21.56h11.98v4.91h-17.58Z"/>
      <path class="cls-1" d="M164.52,26.47V.45h5.6V26.47h-5.6Z"/>
      <path class="cls-1" d="M188.55,26.92c-1.9,0-3.65-.33-5.25-1s-3-1.61-4.19-2.83c-1.19-1.21-2.11-2.64-2.76-4.28s-.98-3.42-.98-5.35,.33-3.75,.98-5.37,1.57-3.04,2.76-4.26c1.19-1.21,2.58-2.16,4.17-2.83,1.59-.67,3.33-1,5.24-1s3.64,.33,5.23,.98c1.59,.66,2.98,1.59,4.17,2.81,1.19,1.21,2.11,2.64,2.76,4.28s.98,3.43,.98,5.39-.33,3.72-.98,5.37-1.57,3.08-2.76,4.29c-1.19,1.21-2.58,2.15-4.17,2.81s-3.32,.99-5.2,.99Zm-.03-5.09c1.08,0,2.06-.2,2.97-.61s1.7-.99,2.39-1.75,1.22-1.64,1.6-2.64,.57-2.12,.57-3.36-.19-2.36-.57-3.37c-.38-1-.91-1.88-1.6-2.64s-1.48-1.34-2.39-1.75-1.89-.61-2.97-.61-2.07,.2-2.99,.61c-.92,.41-1.71,.99-2.39,1.75s-1.2,1.64-1.58,2.64-.57,2.13-.57,3.37,.19,2.36,.57,3.36,.9,1.88,1.58,2.64c.67,.76,1.47,1.34,2.39,1.75s1.91,.61,2.99,.61Z"/>
      <path class="cls-1" d="M206.95,26.47V.45h4.6l14.18,18.74h-2.23V.45h5.49V26.47h-4.6l-14.18-18.74h2.23V26.47h-5.49Z"/>
      <path class="cls-1" d="M257.27,26.92c-3.41,0-6.08-1.03-8-3.09s-2.88-5.01-2.88-8.85V.45h5.59V14.84c0,2.45,.47,4.23,1.41,5.33s2.24,1.65,3.91,1.65,3.01-.55,3.95-1.65,1.41-2.88,1.41-5.33V.45h5.46V14.98c0,3.84-.96,6.79-2.88,8.85s-4.58,3.09-7.96,3.09h-.01Z"/>
      <path class="cls-1" d="M282.68,26.92c-1.92,0-3.77-.28-5.54-.84-1.77-.56-3.2-1.28-4.27-2.17l1.89-4.54c1.01,.79,2.22,1.44,3.64,1.95s2.85,.76,4.29,.76c1.1,0,1.99-.12,2.66-.37s1.17-.58,1.49-.99c.32-.41,.48-.89,.48-1.43,0-.69-.25-1.25-.76-1.66-.5-.41-1.17-.74-2.01-1s-1.75-.51-2.73-.74c-.98-.24-1.97-.52-2.97-.85s-1.91-.78-2.75-1.34-1.5-1.29-1.99-2.19-.74-2.04-.74-3.4c0-1.49,.37-2.84,1.1-4.07s1.85-2.21,3.35-2.94S281.2,0,283.47,0c1.51,0,3,.2,4.48,.59,1.48,.4,2.76,.97,3.86,1.71l-1.75,4.54c-1.08-.67-2.19-1.17-3.33-1.51-1.14-.33-2.24-.5-3.29-.5s-1.98,.13-2.64,.39-1.15,.61-1.46,1.06-.46,.94-.46,1.49c0,.69,.25,1.25,.75,1.67s1.17,.75,1.99,.99c.82,.24,1.74,.47,2.75,.71s2,.53,2.99,.87c.98,.35,1.89,.79,2.71,1.32,.82,.53,1.49,1.25,2.01,2.16,.51,.91,.77,2.03,.77,3.37,0,1.46-.37,2.8-1.12,4.01-.74,1.21-1.87,2.19-3.38,2.94-1.51,.74-3.4,1.12-5.66,1.12h-.01Z"/>
    </g>
  </g>
</svg>